<svg xmlns="http://www.w3.org/2000/svg" xmlns:xlink="http://www.w3.org/1999/xlink" width="500" zoomAndPan="magnify" viewBox="0 0 375 374.999991" height="500" preserveAspectRatio="xMidYMid meet" version="1.0"><path fill="#be1e2d" d="M 364.863281 144.449219 C 387.640625 242.574219 326.636719 340.628906 228.613281 363.40625 C 130.589844 386.1875 32.671875 325.125 9.902344 227.011719 C -12.867188 128.898438 48.113281 30.859375 146.136719 8.058594 C 195.851562 -3.496094 253.238281 4.050781 292.996094 36.597656 L 265.078125 64.652344 C 261.050781 62.054688 256.902344 59.664062 252.632812 57.484375 C 248.367188 55.300781 244 53.339844 239.535156 51.597656 C 235.070312 49.851562 230.53125 48.335938 225.914062 47.050781 C 221.296875 45.761719 216.628906 44.710938 211.90625 43.890625 C 207.183594 43.074219 202.433594 42.492188 197.652344 42.152344 C 192.871094 41.808594 188.085938 41.707031 183.296875 41.847656 C 178.507812 41.984375 173.734375 42.363281 168.984375 42.980469 C 164.230469 43.601562 159.523438 44.453125 154.855469 45.546875 C 77.5 63.53125 29.371094 140.875 47.339844 218.296875 C 65.308594 295.722656 142.566406 343.914062 219.929688 325.921875 C 297.296875 307.929688 345.390625 230.613281 327.445312 153.152344 C 324.660156 141.117188 316.480469 120.792969 311.050781 110.328125 L 337.773438 82.648438 C 344.171875 92.011719 349.648438 101.890625 354.203125 112.28125 C 358.757812 122.671875 362.3125 133.394531 364.863281 144.449219 Z M 227.136719 180.316406 L 373.914062 31.746094 C 372.875 30.707031 371.792969 29.722656 370.65625 28.792969 C 369.523438 27.863281 368.347656 26.988281 367.125 26.175781 C 365.90625 25.359375 364.648438 24.609375 363.355469 23.917969 C 362.0625 23.226562 360.734375 22.601562 359.378906 22.042969 C 358.023438 21.484375 356.644531 20.992188 355.242188 20.566406 C 353.835938 20.144531 352.414062 19.789062 350.976562 19.507812 C 349.539062 19.226562 348.089844 19.011719 346.628906 18.875 C 345.167969 18.734375 343.707031 18.664062 342.238281 18.671875 C 340.773438 18.675781 339.308594 18.75 337.851562 18.898438 C 336.394531 19.046875 334.945312 19.269531 333.507812 19.5625 C 332.070312 19.851562 330.652344 20.214844 329.25 20.648438 C 327.847656 21.078125 326.472656 21.578125 325.117188 22.144531 C 323.765625 22.714844 322.445312 23.347656 321.15625 24.046875 C 319.867188 24.742188 318.613281 25.503906 317.398438 26.324219 C 316.183594 27.148438 315.011719 28.027344 313.882812 28.964844 C 312.753906 29.902344 311.675781 30.894531 310.644531 31.9375 L 195.421875 148.722656 L 158.351562 111.613281 C 157.3125 110.574219 156.226562 109.589844 155.089844 108.65625 C 153.953125 107.722656 152.773438 106.847656 151.554688 106.03125 C 150.332031 105.214844 149.074219 104.460938 147.777344 103.769531 C 146.480469 103.078125 145.15625 102.449219 143.800781 101.886719 C 142.441406 101.324219 141.058594 100.828125 139.65625 100.402344 C 138.25 99.976562 136.824219 99.621094 135.386719 99.332031 C 133.945312 99.046875 132.492188 98.832031 131.03125 98.6875 C 129.570312 98.542969 128.105469 98.472656 126.636719 98.472656 C 125.167969 98.472656 123.703125 98.542969 122.242188 98.6875 C 120.777344 98.832031 119.328125 99.046875 117.886719 99.332031 C 116.445312 99.621094 115.023438 99.976562 113.617188 100.402344 C 112.210938 100.828125 110.832031 101.324219 109.472656 101.886719 C 108.117188 102.449219 106.789062 103.078125 105.496094 103.769531 C 104.199219 104.460938 102.941406 105.214844 101.71875 106.03125 C 100.496094 106.847656 99.320312 107.722656 98.183594 108.65625 C 97.046875 109.589844 95.960938 110.574219 94.921875 111.613281 L 163.734375 180.503906 L 94.921875 250.5 C 95.957031 251.535156 97.042969 252.519531 98.175781 253.453125 C 99.3125 254.382812 100.488281 255.257812 101.707031 256.070312 C 102.929688 256.886719 104.183594 257.640625 105.480469 258.328125 C 106.773438 259.019531 108.097656 259.644531 109.453125 260.207031 C 110.808594 260.765625 112.1875 261.257812 113.59375 261.679688 C 114.996094 262.105469 116.417969 262.457031 117.859375 262.742188 C 119.296875 263.023438 120.746094 263.238281 122.207031 263.378906 C 123.664062 263.519531 125.128906 263.585938 126.59375 263.582031 C 128.0625 263.578125 129.523438 263.5 130.984375 263.351562 C 132.441406 263.203125 133.890625 262.984375 135.328125 262.691406 C 136.765625 262.402344 138.183594 262.039062 139.585938 261.609375 C 140.988281 261.175781 142.367188 260.675781 143.71875 260.109375 C 145.070312 259.542969 146.390625 258.910156 147.683594 258.210938 C 148.972656 257.511719 150.226562 256.753906 151.441406 255.933594 C 152.65625 255.109375 153.828125 254.230469 154.957031 253.292969 C 156.085938 252.355469 157.164062 251.363281 158.195312 250.320312 L 195.628906 212.429688 L 233.355469 250.195312 C 234.390625 251.234375 235.476562 252.21875 236.613281 253.152344 C 237.746094 254.082031 238.925781 254.957031 240.144531 255.773438 C 241.367188 256.589844 242.625 257.34375 243.917969 258.035156 C 245.210938 258.726562 246.539062 259.351562 247.894531 259.910156 C 249.25 260.472656 250.628906 260.964844 252.035156 261.390625 C 253.441406 261.816406 254.863281 262.167969 256.300781 262.453125 C 257.742188 262.738281 259.191406 262.949219 260.652344 263.089844 C 262.113281 263.234375 263.578125 263.300781 265.042969 263.296875 C 266.511719 263.296875 267.976562 263.21875 269.433594 263.070312 C 270.894531 262.925781 272.34375 262.703125 273.78125 262.414062 C 275.222656 262.125 276.640625 261.761719 278.042969 261.332031 C 279.449219 260.902344 280.824219 260.402344 282.179688 259.835938 C 283.535156 259.269531 284.855469 258.636719 286.148438 257.941406 C 287.4375 257.242188 288.695312 256.484375 289.910156 255.664062 C 291.128906 254.839844 292.300781 253.960938 293.429688 253.027344 C 294.5625 252.089844 295.644531 251.097656 296.675781 250.054688 Z M 227.136719 180.316406 " fill-opacity="1" fill-rule="nonzero"/></svg>